<svg xmlns="http://www.w3.org/2000/svg" xmlns:xlink="http://www.w3.org/1999/xlink" width="1080" zoomAndPan="magnify" viewBox="0 0 810 809.999993" height="1080" preserveAspectRatio="xMidYMid meet" version="1.0"><defs><clipPath id="daa1fc89ab"><path d="M 16.460938 0 L 793.460938 0 L 793.460938 777 L 16.460938 777 Z M 16.460938 0 " clip-rule="nonzero"/></clipPath><clipPath id="19303cc481"><path d="M 349 42.058594 L 466.984375 42.058594 L 466.984375 109 L 349 109 Z M 349 42.058594 " clip-rule="nonzero"/></clipPath><clipPath id="6bd1910327"><path d="M 68 472 L 403 472 L 403 542.449219 L 68 542.449219 Z M 68 472 " clip-rule="nonzero"/></clipPath><clipPath id="b17beabf4f"><path d="M 413 472 L 748 472 L 748 542.449219 L 413 542.449219 Z M 413 472 " clip-rule="nonzero"/></clipPath></defs><g clip-path="url(#daa1fc89ab)"><path fill="#1f2327" d="M 404.960938 0 C 190.398438 0 16.460938 173.9375 16.460938 388.5 C 16.460938 603.0625 190.398438 777 404.960938 777 C 619.523438 777 793.460938 603.0625 793.460938 388.5 C 793.460938 173.9375 619.523438 0 404.960938 0 " fill-opacity="1" fill-rule="nonzero"/></g><path fill="#f68c11" d="M 407.984375 176.457031 C 331.707031 107.332031 242.125 132.183594 242.125 132.183594 C 374.285156 134.515625 407.984375 312.707031 407.984375 312.707031 C 407.984375 312.707031 441.679688 134.515625 573.839844 132.183594 C 573.839844 132.183594 484.289062 107.332031 407.984375 176.457031 " fill-opacity="1" fill-rule="nonzero"/><path fill="#f68c11" d="M 440.742188 116.183594 C 440.742188 134.214844 426.074219 148.820312 407.984375 148.820312 C 389.890625 148.820312 375.253906 134.214844 375.253906 116.183594 C 375.253906 98.183594 389.890625 83.574219 407.984375 83.574219 C 426.074219 83.574219 440.742188 98.183594 440.742188 116.183594 " fill-opacity="1" fill-rule="nonzero"/><g clip-path="url(#19303cc481)"><path fill="#f68c11" d="M 466.226562 71.058594 L 407.984375 42.058594 L 349.765625 71.058594 L 376.617188 84.421875 L 376.617188 108.789062 L 439.347656 108.789062 L 439.347656 84.421875 L 466.226562 71.058594 " fill-opacity="1" fill-rule="nonzero"/></g><path fill="#ed166d" d="M 299.644531 180.882812 C 299.644531 180.882812 303.523438 186.703125 306.855469 196.734375 C 321.734375 241.675781 291.1875 288.675781 244.035156 294.527344 C 198.941406 300.132812 182.210938 320.34375 182.210938 320.34375 C 224.0625 297.648438 262.703125 323.375 286.066406 337.769531 C 322.554688 360.226562 333.734375 371.074219 360.796875 374.953125 C 360.796875 374.953125 323.523438 356.195312 326.554688 286.980469 C 328.433594 244.460938 330.128906 209.339844 299.644531 180.882812 Z M 274.582031 275.980469 C 284.308594 270.464844 287.703125 258.191406 282.1875 248.492188 C 276.671875 238.824219 264.308594 235.429688 254.609375 240.945312 C 244.882812 246.433594 241.488281 258.734375 247.003906 268.402344 C 252.519531 278.070312 264.882812 281.464844 274.582031 275.980469 " fill-opacity="1" fill-rule="nonzero"/><path fill="#ed166d" d="M 219.246094 253.492188 L 238.941406 219.792969 L 277.824219 215.277344 L 268.734375 230.824219 L 276.792969 243.070312 L 245.246094 263.644531 L 237.183594 251.402344 L 219.246094 253.492188 " fill-opacity="1" fill-rule="nonzero"/><path fill="#57bda9" d="M 489.410156 286.980469 C 492.441406 356.195312 455.195312 374.953125 455.195312 374.953125 C 482.257812 371.074219 493.410156 360.226562 529.898438 337.769531 C 553.292969 323.375 591.902344 297.648438 633.78125 320.34375 C 633.78125 320.34375 617.023438 300.132812 571.929688 294.527344 C 524.777344 288.675781 494.261719 241.675781 509.140625 196.734375 C 512.441406 186.703125 516.320312 180.882812 516.320312 180.882812 C 485.867188 209.339844 487.5625 244.460938 489.410156 286.980469 Z M 568.960938 268.402344 C 574.476562 258.734375 571.082031 246.433594 561.386719 240.945312 C 551.65625 235.429688 539.324219 238.824219 533.777344 248.492188 C 528.261719 258.191406 531.6875 270.464844 541.382812 275.980469 C 551.113281 281.464844 563.445312 278.070312 568.960938 268.402344 " fill-opacity="1" fill-rule="nonzero"/><path fill="#57bda9" d="M 596.71875 253.492188 L 577.023438 219.792969 L 538.140625 215.277344 L 547.234375 230.824219 L 539.171875 243.070312 L 570.71875 263.644531 L 578.78125 251.402344 L 596.71875 253.492188 " fill-opacity="1" fill-rule="nonzero"/><g clip-path="url(#6bd1910327)"><path fill="#274082" d="M 68.054688 513.296875 C 68.054688 513.296875 69.238281 512.6875 71.449219 511.539062 C 73.691406 510.386719 76.722656 508.75 81.359375 506.539062 C 82.480469 505.992188 83.660156 505.417969 84.902344 504.839844 C 86.175781 504.234375 87.449219 503.597656 88.8125 503.023438 C 91.480469 501.871094 94.390625 500.535156 97.511719 499.234375 C 100.664062 497.960938 103.964844 496.597656 107.511719 495.234375 C 111.085938 493.929688 114.785156 492.507812 118.722656 491.171875 C 122.695312 489.898438 126.753906 488.476562 131.058594 487.261719 C 133.210938 486.628906 135.390625 485.992188 137.605469 485.324219 C 139.816406 484.75 142.089844 484.171875 144.390625 483.566406 C 145.511719 483.261719 146.695312 482.960938 147.847656 482.65625 C 149 482.382812 150.179688 482.140625 151.363281 481.839844 C 153.726562 481.324219 156.121094 480.75 158.542969 480.234375 C 163.421875 479.292969 168.363281 478.234375 173.453125 477.445312 C 178.515625 476.566406 183.726562 475.898438 188.941406 475.203125 C 191.578125 474.898438 194.214844 474.65625 196.851562 474.355469 C 198.183594 474.234375 199.515625 474.082031 200.851562 473.960938 C 202.183594 473.867188 203.515625 473.777344 204.851562 473.6875 C 207.546875 473.503906 210.214844 473.234375 212.910156 473.140625 C 215.609375 473.019531 218.335938 472.898438 221.03125 472.777344 C 223.761719 472.71875 226.457031 472.71875 229.183594 472.65625 C 231.882812 472.597656 234.609375 472.625 237.335938 472.6875 C 242.761719 472.71875 248.1875 472.988281 253.550781 473.261719 C 256.246094 473.445312 258.945312 473.625 261.609375 473.839844 C 264.277344 473.988281 266.945312 474.292969 269.582031 474.566406 C 272.246094 474.867188 274.882812 475.050781 277.492188 475.445312 C 280.097656 475.777344 282.703125 476.140625 285.277344 476.476562 C 287.855469 476.808594 290.398438 477.292969 292.914062 477.6875 C 295.460938 478.082031 297.976562 478.503906 300.429688 478.992188 C 302.917969 479.476562 305.371094 479.929688 307.796875 480.414062 C 310.21875 480.960938 312.613281 481.476562 314.976562 481.992188 C 316.160156 482.261719 317.339844 482.535156 318.492188 482.777344 C 319.675781 483.082031 320.828125 483.355469 321.976562 483.65625 C 324.25 484.234375 326.523438 484.808594 328.765625 485.355469 C 330.976562 485.960938 333.160156 486.597656 335.3125 487.203125 C 337.464844 487.808594 339.585938 488.355469 341.644531 489.019531 C 343.707031 489.6875 345.738281 490.324219 347.738281 490.929688 C 348.707031 491.265625 349.707031 491.566406 350.675781 491.871094 C 351.644531 492.203125 352.585938 492.535156 353.554688 492.871094 C 361.132812 495.414062 367.980469 498.023438 374.011719 500.414062 C 377.011719 501.660156 379.828125 502.808594 382.40625 503.871094 C 384.980469 504.992188 387.316406 506.050781 389.464844 506.992188 C 390.527344 507.476562 391.527344 507.902344 392.464844 508.324219 C 393.40625 508.78125 394.253906 509.203125 395.074219 509.566406 C 396.710938 510.355469 398.101562 511.023438 399.222656 511.566406 C 401.46875 512.628906 402.648438 513.203125 402.648438 513.203125 C 402.648438 513.203125 401.40625 512.75 399.074219 511.902344 C 397.890625 511.476562 396.464844 510.960938 394.769531 510.355469 C 393.921875 510.050781 393.011719 509.71875 392.042969 509.386719 C 391.074219 509.050781 390.011719 508.71875 388.921875 508.355469 C 386.707031 507.628906 384.285156 506.808594 381.648438 505.929688 C 378.949219 505.144531 376.070312 504.292969 372.980469 503.355469 C 366.796875 501.566406 359.796875 499.6875 352.101562 497.929688 C 351.132812 497.6875 350.160156 497.476562 349.191406 497.234375 C 348.191406 497.023438 347.191406 496.839844 346.191406 496.628906 C 344.191406 496.203125 342.128906 495.777344 340.039062 495.355469 C 337.980469 494.898438 335.828125 494.566406 333.675781 494.171875 C 331.523438 493.777344 329.34375 493.355469 327.097656 493.019531 C 324.886719 492.6875 322.613281 492.355469 320.3125 492.019531 C 319.191406 491.839844 318.039062 491.65625 316.886719 491.507812 C 315.703125 491.355469 314.554688 491.234375 313.371094 491.082031 C 311.039062 490.808594 308.644531 490.507812 306.25 490.234375 C 303.855469 490.019531 301.429688 489.808594 299.007812 489.566406 C 296.550781 489.324219 294.097656 489.171875 291.613281 489.019531 C 289.128906 488.898438 286.613281 488.6875 284.097656 488.597656 C 281.613281 488.535156 279.066406 488.445312 276.519531 488.355469 C 273.976562 488.234375 271.429688 488.324219 268.855469 488.261719 C 266.308594 488.261719 263.730469 488.234375 261.15625 488.324219 C 258.582031 488.414062 256.003906 488.476562 253.429688 488.535156 C 248.246094 488.839844 243.0625 489.050781 237.914062 489.566406 C 235.335938 489.777344 232.761719 489.992188 230.183594 490.292969 C 227.609375 490.597656 225.0625 490.871094 222.519531 491.203125 C 219.972656 491.566406 217.425781 491.929688 214.882812 492.292969 C 212.367188 492.628906 209.851562 493.144531 207.367188 493.535156 C 206.09375 493.777344 204.851562 493.992188 203.609375 494.203125 C 202.367188 494.414062 201.152344 494.6875 199.910156 494.929688 C 197.457031 495.445312 195 495.929688 192.578125 496.476562 C 187.757812 497.628906 183 498.6875 178.363281 500.023438 C 173.726562 501.203125 169.242188 502.660156 164.816406 503.960938 C 162.636719 504.6875 160.484375 505.417969 158.332031 506.113281 C 157.273438 506.476562 156.210938 506.839844 155.152344 507.203125 C 154.121094 507.566406 153.089844 507.960938 152.058594 508.324219 C 150 509.113281 148 509.839844 146 510.597656 C 144.027344 511.386719 142.089844 512.175781 140.179688 512.933594 C 136.363281 514.445312 132.785156 516.144531 129.300781 517.660156 C 125.816406 519.203125 122.574219 520.871094 119.453125 522.355469 C 116.390625 523.902344 113.511719 525.449219 110.785156 526.871094 C 108.085938 528.355469 105.601562 529.8125 103.269531 531.085938 C 102.117188 531.75 101.027344 532.386719 100.027344 532.992188 C 99.027344 533.628906 98.054688 534.207031 97.148438 534.75 C 93.601562 536.871094 90.417969 539.023438 88.359375 540.355469 C 86.269531 541.722656 85.175781 542.417969 85.175781 542.417969 L 68.054688 513.296875 " fill-opacity="1" fill-rule="nonzero"/></g><path fill="#53afe6" d="M 396.589844 448.230469 C 395.832031 447.441406 394.890625 446.472656 393.800781 445.351562 C 393.253906 444.777344 392.648438 444.171875 392.011719 443.535156 C 391.375 442.898438 390.679688 442.230469 389.953125 441.503906 C 388.496094 440.078125 386.890625 438.503906 385.132812 436.804688 C 383.316406 435.140625 381.375 433.351562 379.285156 431.410156 C 375.070312 427.625 370.222656 423.410156 364.769531 418.988281 C 364.070312 418.441406 363.40625 417.867188 362.707031 417.289062 C 361.980469 416.746094 361.28125 416.199219 360.554688 415.652344 C 359.101562 414.53125 357.644531 413.378906 356.132812 412.230469 C 354.644531 411.046875 353.070312 409.957031 351.496094 408.804688 C 349.917969 407.652344 348.3125 406.441406 346.675781 405.289062 C 345.007812 404.167969 343.3125 402.984375 341.617188 401.835938 C 340.765625 401.230469 339.886719 400.652344 339.039062 400.046875 C 338.160156 399.5 337.25 398.925781 336.371094 398.351562 C 334.585938 397.199219 332.765625 396.046875 330.949219 394.863281 C 329.097656 393.742188 327.21875 392.621094 325.339844 391.46875 C 323.460938 390.289062 321.523438 389.199219 319.554688 388.105469 C 317.613281 387.015625 315.644531 385.863281 313.644531 384.773438 C 311.613281 383.710938 309.582031 382.652344 307.554688 381.5625 C 305.523438 380.46875 303.402344 379.5 301.339844 378.46875 C 299.25 377.410156 297.128906 376.378906 295.007812 375.4375 C 292.855469 374.46875 290.703125 373.46875 288.550781 372.5 C 284.1875 370.679688 279.824219 368.773438 275.371094 367.105469 C 273.15625 366.257812 270.945312 365.378906 268.671875 364.621094 C 266.429688 363.832031 264.1875 363.015625 261.945312 362.257812 C 259.671875 361.53125 257.429688 360.800781 255.15625 360.074219 C 252.914062 359.316406 250.640625 358.742188 248.367188 358.074219 C 247.246094 357.742188 246.09375 357.40625 244.972656 357.105469 C 243.851562 356.773438 242.699219 356.5 241.578125 356.195312 C 239.308594 355.648438 237.0625 355.042969 234.820312 354.5 C 230.304688 353.46875 225.820312 352.4375 221.398438 351.648438 C 216.972656 350.742188 212.578125 350.105469 208.273438 349.40625 C 206.121094 349.074219 204 348.832031 201.878906 348.558594 C 200.820312 348.40625 199.789062 348.285156 198.730469 348.164062 C 197.699219 348.042969 196.636719 347.921875 195.605469 347.832031 C 193.546875 347.621094 191.484375 347.4375 189.484375 347.226562 C 187.484375 347.105469 185.484375 346.953125 183.546875 346.832031 C 179.605469 346.527344 175.816406 346.46875 172.183594 346.316406 C 170.210938 346.253906 168.273438 346.253906 166.394531 346.253906 L 128.90625 378.257812 C 128.90625 378.257812 130.027344 378.015625 132.148438 377.53125 C 134.242188 377.074219 137.511719 376.257812 141.089844 375.621094 C 142.027344 375.410156 143 375.226562 144 375.015625 C 145.027344 374.832031 146.089844 374.621094 147.242188 374.4375 C 149.542969 374.074219 152.027344 373.652344 154.695312 373.257812 C 157.394531 372.925781 160.242188 372.53125 163.242188 372.167969 C 166.273438 371.894531 169.425781 371.5 172.757812 371.289062 C 176.089844 371.105469 179.546875 370.800781 183.152344 370.710938 C 184.96875 370.679688 186.789062 370.621094 188.667969 370.558594 C 190.515625 370.558594 192.425781 370.558594 194.335938 370.53125 C 195.304688 370.53125 196.273438 370.53125 197.242188 370.53125 C 198.214844 370.558594 199.183594 370.589844 200.183594 370.621094 C 202.152344 370.679688 204.152344 370.742188 206.152344 370.800781 C 210.214844 371.074219 214.335938 371.257812 218.519531 371.679688 C 222.730469 372.015625 226.972656 372.558594 231.304688 373.074219 C 233.457031 373.378906 235.609375 373.742188 237.792969 374.074219 C 238.882812 374.226562 239.972656 374.378906 241.0625 374.558594 C 242.15625 374.773438 243.246094 374.953125 244.335938 375.167969 C 246.519531 375.589844 248.730469 375.925781 250.914062 376.410156 C 253.09375 376.894531 255.308594 377.347656 257.519531 377.832031 C 259.703125 378.347656 261.914062 378.894531 264.097656 379.441406 C 266.308594 379.953125 268.488281 380.5625 270.671875 381.167969 C 275.066406 382.320312 279.398438 383.710938 283.734375 385.046875 C 285.886719 385.773438 288.035156 386.5 290.15625 387.226562 C 292.308594 387.925781 294.429688 388.710938 296.523438 389.5 C 298.613281 390.320312 300.765625 391.046875 302.796875 391.894531 C 304.855469 392.742188 306.917969 393.5625 308.976562 394.410156 C 311.007812 395.226562 313.007812 396.167969 315.007812 397.046875 C 317.007812 397.925781 318.976562 398.773438 320.917969 399.742188 C 322.855469 400.652344 324.765625 401.5625 326.675781 402.472656 C 328.554688 403.441406 330.433594 404.378906 332.28125 405.320312 C 333.191406 405.804688 334.101562 406.257812 335.007812 406.742188 C 335.917969 407.230469 336.828125 407.714844 337.707031 408.199219 C 339.492188 409.167969 341.222656 410.136719 342.980469 411.078125 C 344.707031 412.046875 346.375 413.078125 348.007812 414.015625 C 349.675781 415.015625 351.34375 415.925781 352.886719 416.925781 C 354.496094 417.925781 356.039062 418.894531 357.554688 419.835938 C 358.3125 420.320312 359.070312 420.804688 359.828125 421.261719 C 360.554688 421.746094 361.28125 422.230469 362.011719 422.714844 C 367.796875 426.503906 372.980469 430.167969 377.527344 433.535156 C 379.800781 435.230469 381.890625 436.804688 383.859375 438.292969 C 385.769531 439.804688 387.527344 441.199219 389.101562 442.472656 C 389.890625 443.078125 390.648438 443.683594 391.34375 444.261719 C 392.042969 444.835938 392.707031 445.382812 393.285156 445.898438 C 394.496094 446.898438 395.527344 447.777344 396.34375 448.472656 C 398.011719 449.867188 398.921875 450.625 398.921875 450.625 C 398.921875 450.625 398.101562 449.808594 396.589844 448.230469 " fill-opacity="1" fill-rule="nonzero"/><path fill="#3a6ab9" d="M 395.800781 486.839844 C 394.800781 486.113281 393.558594 485.203125 392.074219 484.140625 C 391.34375 483.628906 390.558594 483.050781 389.738281 482.445312 C 388.890625 481.871094 387.980469 481.261719 387.011719 480.597656 C 385.101562 479.292969 382.980469 477.839844 380.648438 476.261719 C 378.3125 474.746094 375.738281 473.109375 373.011719 471.355469 C 367.527344 467.898438 361.253906 464.109375 354.253906 460.230469 C 353.402344 459.746094 352.523438 459.261719 351.617188 458.746094 C 350.707031 458.261719 349.796875 457.808594 348.886719 457.292969 C 347.039062 456.324219 345.160156 455.351562 343.25 454.351562 C 341.34375 453.292969 339.34375 452.382812 337.34375 451.382812 C 335.34375 450.414062 333.3125 449.382812 331.25 448.414062 C 329.128906 447.441406 327.007812 446.472656 324.855469 445.503906 C 323.796875 445.019531 322.707031 444.535156 321.613281 444.019531 C 320.523438 443.5625 319.402344 443.109375 318.28125 442.625 C 316.070312 441.683594 313.796875 440.746094 311.523438 439.777344 C 309.21875 438.867188 306.886719 437.957031 304.550781 437.046875 C 302.1875 436.109375 299.792969 435.261719 297.402344 434.414062 C 294.976562 433.5625 292.550781 432.65625 290.066406 431.835938 C 287.613281 431.046875 285.128906 430.230469 282.613281 429.441406 C 280.128906 428.59375 277.550781 427.925781 275.003906 427.167969 C 272.460938 426.410156 269.882812 425.652344 267.277344 424.988281 C 264.703125 424.320312 262.097656 423.652344 259.488281 422.988281 C 254.214844 421.773438 248.945312 420.503906 243.609375 419.503906 C 240.941406 418.988281 238.277344 418.441406 235.609375 418.015625 C 232.914062 417.5625 230.246094 417.078125 227.578125 416.683594 C 224.882812 416.320312 222.214844 415.925781 219.519531 415.5625 C 216.851562 415.167969 214.152344 414.957031 211.488281 414.652344 C 210.152344 414.503906 208.820312 414.351562 207.488281 414.199219 C 206.152344 414.078125 204.820312 413.988281 203.515625 413.894531 C 200.851562 413.683594 198.214844 413.441406 195.578125 413.289062 C 190.304688 413.046875 185.089844 412.746094 179.941406 412.714844 C 174.789062 412.5625 169.726562 412.714844 164.757812 412.773438 C 162.273438 412.835938 159.816406 412.988281 157.394531 413.078125 C 156.179688 413.136719 155 413.167969 153.785156 413.230469 C 152.605469 413.320312 151.394531 413.410156 150.210938 413.5 C 147.847656 413.683594 145.511719 413.835938 143.242188 414.015625 C 140.9375 414.257812 138.664062 414.503906 136.453125 414.746094 C 131.996094 415.136719 127.726562 415.835938 123.601562 416.378906 C 119.511719 416.957031 115.574219 417.714844 111.84375 418.351562 C 110.179688 418.652344 108.570312 418.988281 106.996094 419.289062 L 81.328125 460.746094 C 81.328125 460.746094 82.539062 460.230469 84.84375 459.292969 C 87.085938 458.351562 90.601562 456.808594 94.480469 455.382812 C 95.480469 454.988281 96.542969 454.59375 97.632812 454.171875 C 98.753906 453.714844 99.90625 453.292969 101.179688 452.867188 C 103.691406 451.988281 106.390625 451.019531 109.300781 450.050781 C 112.238281 449.171875 115.359375 448.140625 118.695312 447.171875 C 122.027344 446.261719 125.511719 445.230469 129.210938 444.320312 C 132.90625 443.441406 136.726562 442.441406 140.753906 441.65625 C 142.785156 441.230469 144.816406 440.804688 146.90625 440.382812 C 149 440.019531 151.121094 439.625 153.273438 439.230469 C 154.363281 439.046875 155.453125 438.867188 156.542969 438.683594 C 157.636719 438.503906 158.757812 438.351562 159.847656 438.199219 C 162.089844 437.867188 164.332031 437.5625 166.636719 437.230469 C 171.210938 436.746094 175.878906 436.109375 180.667969 435.777344 C 185.457031 435.320312 190.335938 435.109375 195.304688 434.867188 C 197.757812 434.777344 200.273438 434.746094 202.789062 434.683594 C 204.03125 434.65625 205.304688 434.59375 206.546875 434.59375 C 207.820312 434.625 209.09375 434.625 210.335938 434.625 C 212.882812 434.683594 215.425781 434.625 217.972656 434.746094 C 220.546875 434.867188 223.09375 434.957031 225.667969 435.046875 C 228.246094 435.167969 230.820312 435.382812 233.398438 435.5625 C 235.972656 435.683594 238.550781 435.957031 241.125 436.199219 C 246.308594 436.65625 251.429688 437.351562 256.550781 437.988281 C 259.125 438.414062 261.671875 438.804688 264.21875 439.199219 C 266.761719 439.5625 269.277344 440.019531 271.792969 440.503906 C 274.308594 440.988281 276.855469 441.414062 279.308594 441.957031 C 281.792969 442.503906 284.277344 443.050781 286.734375 443.5625 C 289.1875 444.109375 291.613281 444.777344 294.035156 445.351562 C 296.460938 445.929688 298.855469 446.535156 301.1875 447.199219 C 303.550781 447.867188 305.917969 448.503906 308.21875 449.171875 C 310.523438 449.867188 312.796875 450.566406 315.070312 451.261719 C 316.191406 451.625 317.3125 451.957031 318.433594 452.324219 C 319.554688 452.6875 320.644531 453.050781 321.734375 453.445312 C 323.917969 454.171875 326.097656 454.898438 328.21875 455.625 C 330.34375 456.382812 332.433594 457.203125 334.492188 457.957031 C 336.523438 458.746094 338.585938 459.445312 340.554688 460.261719 C 342.523438 461.050781 344.433594 461.839844 346.34375 462.625 C 347.3125 463.019531 348.253906 463.382812 349.160156 463.777344 C 350.101562 464.171875 351.007812 464.566406 351.917969 464.960938 C 359.160156 468.082031 365.738281 471.203125 371.496094 474.050781 C 374.34375 475.535156 377.042969 476.898438 379.527344 478.171875 C 381.980469 479.503906 384.222656 480.71875 386.253906 481.839844 C 387.253906 482.382812 388.222656 482.898438 389.132812 483.382812 C 390.011719 483.929688 390.859375 484.414062 391.648438 484.871094 C 393.195312 485.75 394.496094 486.535156 395.589844 487.140625 C 397.738281 488.414062 398.859375 489.082031 398.859375 489.082031 C 398.859375 489.082031 397.800781 488.292969 395.800781 486.839844 " fill-opacity="1" fill-rule="nonzero"/><g clip-path="url(#b17beabf4f)"><path fill="#274082" d="M 747.910156 513.296875 C 747.910156 513.296875 746.757812 512.6875 744.546875 511.539062 C 742.273438 510.386719 739.273438 508.75 734.605469 506.539062 C 733.484375 505.992188 732.304688 505.417969 731.0625 504.839844 C 729.816406 504.234375 728.515625 503.597656 727.183594 503.023438 C 724.484375 501.871094 721.574219 500.535156 718.484375 499.234375 C 715.332031 497.960938 712 496.597656 708.453125 495.234375 C 704.90625 493.929688 701.179688 492.507812 697.242188 491.171875 C 693.300781 489.898438 689.210938 488.476562 684.90625 487.261719 C 682.753906 486.628906 680.601562 485.992188 678.390625 485.324219 C 676.148438 484.75 673.875 484.171875 671.601562 483.566406 C 670.453125 483.261719 669.300781 482.960938 668.148438 482.65625 C 666.964844 482.382812 665.785156 482.140625 664.601562 481.839844 C 662.238281 481.324219 659.84375 480.75 657.421875 480.234375 C 652.542969 479.292969 647.601562 478.234375 642.511719 477.445312 C 637.449219 476.566406 632.265625 475.898438 627.023438 475.203125 C 624.417969 474.898438 621.75 474.65625 619.117188 474.355469 C 617.78125 474.234375 616.449219 474.082031 615.113281 473.960938 C 613.78125 473.867188 612.449219 473.777344 611.113281 473.6875 C 608.449219 473.503906 605.75 473.234375 603.054688 473.140625 C 600.355469 473.019531 597.660156 472.898438 594.933594 472.777344 C 592.234375 472.71875 589.507812 472.71875 586.808594 472.65625 C 584.082031 472.597656 581.355469 472.625 578.660156 472.6875 C 573.234375 472.71875 567.808594 472.988281 562.414062 473.261719 C 559.71875 473.445312 557.050781 473.625 554.355469 473.839844 C 551.6875 473.988281 549.019531 474.292969 546.382812 474.566406 C 543.746094 474.867188 541.082031 475.050781 538.472656 475.445312 C 535.867188 475.777344 533.292969 476.140625 530.714844 476.476562 C 528.140625 476.808594 525.59375 477.292969 523.050781 477.6875 C 520.535156 478.082031 518.019531 478.503906 515.535156 478.992188 C 513.050781 479.476562 510.59375 479.929688 508.167969 480.414062 C 505.746094 480.960938 503.382812 481.476562 500.988281 481.992188 C 499.804688 482.261719 498.652344 482.535156 497.472656 482.777344 C 496.320312 483.082031 495.167969 483.355469 494.015625 483.65625 C 491.714844 484.234375 489.472656 484.808594 487.230469 485.355469 C 484.988281 485.960938 482.835938 486.597656 480.683594 487.203125 C 478.53125 487.808594 476.378906 488.355469 474.320312 489.019531 C 472.257812 489.6875 470.226562 490.324219 468.257812 490.929688 C 467.257812 491.265625 466.289062 491.566406 465.320312 491.871094 C 464.320312 492.203125 463.378906 492.535156 462.441406 492.871094 C 454.832031 495.414062 447.984375 498.023438 441.953125 500.414062 C 438.953125 501.660156 436.164062 502.808594 433.558594 503.871094 C 431.015625 504.992188 428.648438 506.050781 426.527344 506.992188 C 425.46875 507.476562 424.46875 507.902344 423.527344 508.324219 C 422.589844 508.78125 421.710938 509.203125 420.890625 509.566406 C 419.257812 510.355469 417.890625 511.023438 416.769531 511.566406 C 414.527344 512.628906 413.316406 513.203125 413.316406 513.203125 C 413.316406 513.203125 414.558594 512.75 416.921875 511.902344 C 418.074219 511.476562 419.527344 510.960938 421.226562 510.355469 C 422.042969 510.050781 422.953125 509.71875 423.921875 509.386719 C 424.921875 509.050781 425.953125 508.71875 427.042969 508.355469 C 429.257812 507.628906 431.679688 506.808594 434.347656 505.929688 C 437.015625 505.144531 439.894531 504.292969 442.984375 503.355469 C 449.167969 501.566406 456.199219 499.6875 463.894531 497.929688 C 464.835938 497.6875 465.804688 497.476562 466.804688 497.234375 C 467.773438 497.023438 468.773438 496.839844 469.773438 496.628906 C 471.804688 496.203125 473.835938 495.777344 475.925781 495.355469 C 477.988281 494.898438 480.136719 494.566406 482.289062 494.171875 C 484.472656 493.777344 486.652344 493.355469 488.867188 493.019531 C 491.109375 492.6875 493.351562 492.355469 495.652344 492.019531 C 496.804688 491.839844 497.957031 491.65625 499.109375 491.507812 C 500.261719 491.355469 501.441406 491.234375 502.59375 491.082031 C 504.957031 490.808594 507.320312 490.507812 509.714844 490.234375 C 512.109375 490.019531 514.535156 489.808594 516.988281 489.566406 C 519.414062 489.324219 521.898438 489.171875 524.382812 489.019531 C 526.867188 488.898438 529.351562 488.6875 531.867188 488.597656 C 534.382812 488.535156 536.898438 488.445312 539.445312 488.355469 C 541.988281 488.234375 544.535156 488.324219 547.113281 488.261719 C 549.65625 488.261719 552.234375 488.234375 554.808594 488.324219 C 557.382812 488.414062 559.992188 488.476562 562.566406 488.535156 C 567.71875 488.839844 572.902344 489.050781 578.050781 489.566406 C 580.660156 489.777344 583.234375 489.992188 585.78125 490.292969 C 588.355469 490.597656 590.933594 490.871094 593.476562 491.203125 C 596.023438 491.566406 598.570312 491.929688 601.085938 492.292969 C 603.628906 492.628906 606.113281 493.144531 608.628906 493.535156 C 609.871094 493.777344 611.113281 493.992188 612.355469 494.203125 C 613.601562 494.414062 614.84375 494.6875 616.054688 494.929688 C 618.507812 495.445312 620.964844 495.929688 623.386719 496.476562 C 628.207031 497.628906 632.964844 498.6875 637.601562 500.023438 C 642.269531 501.203125 646.753906 502.660156 651.148438 503.960938 C 653.359375 504.6875 655.511719 505.417969 657.632812 506.113281 C 658.691406 506.476562 659.753906 506.839844 660.816406 507.203125 C 661.84375 507.566406 662.90625 507.960938 663.90625 508.324219 C 665.964844 509.113281 667.996094 509.839844 669.996094 510.597656 C 671.9375 511.386719 673.875 512.175781 675.785156 512.933594 C 679.601562 514.445312 683.210938 516.144531 686.695312 517.660156 C 690.148438 519.203125 693.390625 520.871094 696.511719 522.355469 C 699.605469 523.902344 702.484375 525.449219 705.210938 526.871094 C 707.90625 528.355469 710.394531 529.8125 712.695312 531.085938 C 713.878906 531.75 714.9375 532.386719 715.9375 532.992188 C 716.9375 533.628906 717.910156 534.207031 718.816406 534.75 C 722.363281 536.871094 725.546875 539.023438 727.605469 540.355469 C 729.695312 541.722656 730.820312 542.417969 730.820312 542.417969 L 747.910156 513.296875 " fill-opacity="1" fill-rule="nonzero"/></g><path fill="#53afe6" d="M 419.378906 448.230469 C 420.132812 447.441406 421.074219 446.472656 422.164062 445.351562 C 422.742188 444.777344 423.316406 444.171875 423.953125 443.535156 C 424.589844 442.898438 425.285156 442.230469 426.015625 441.503906 C 427.46875 440.078125 429.105469 438.503906 430.863281 436.804688 C 432.652344 435.140625 434.621094 433.351562 436.710938 431.410156 C 440.921875 427.625 445.773438 423.410156 451.226562 418.988281 C 451.894531 418.441406 452.589844 417.867188 453.257812 417.289062 C 453.984375 416.746094 454.710938 416.199219 455.410156 415.652344 C 456.863281 414.53125 458.347656 413.378906 459.832031 412.230469 C 461.320312 411.046875 462.894531 409.957031 464.46875 408.804688 C 466.078125 407.652344 467.652344 406.441406 469.320312 405.289062 C 470.957031 404.167969 472.652344 402.984375 474.351562 401.835938 C 475.230469 401.230469 476.078125 400.652344 476.957031 400.046875 C 477.835938 399.5 478.714844 398.925781 479.621094 398.351562 C 481.378906 397.199219 483.199219 396.046875 485.015625 394.863281 C 486.867188 393.742188 488.746094 392.621094 490.652344 391.46875 C 492.503906 390.289062 494.472656 389.199219 496.410156 388.105469 C 498.382812 387.015625 500.320312 385.863281 502.351562 384.773438 C 504.351562 383.710938 506.382812 382.652344 508.414062 381.5625 C 510.441406 380.46875 512.5625 379.5 514.65625 378.46875 C 516.746094 377.410156 518.835938 376.378906 520.988281 375.4375 C 523.140625 374.46875 525.261719 373.46875 527.414062 372.5 C 531.777344 370.679688 536.140625 368.773438 540.597656 367.105469 C 542.808594 366.257812 545.050781 365.378906 547.292969 364.621094 C 549.535156 363.832031 551.777344 363.015625 554.019531 362.257812 C 556.292969 361.53125 558.566406 360.800781 560.808594 360.074219 C 563.050781 359.316406 565.355469 358.742188 567.597656 358.074219 C 568.75 357.742188 569.871094 357.40625 570.992188 357.105469 C 572.144531 356.773438 573.265625 356.5 574.386719 356.195312 C 576.660156 355.648438 578.902344 355.042969 581.175781 354.5 C 585.6875 353.46875 590.144531 352.4375 594.570312 351.648438 C 598.992188 350.742188 603.386719 350.105469 607.691406 349.40625 C 609.84375 349.074219 611.992188 348.832031 614.085938 348.558594 C 615.144531 348.40625 616.207031 348.285156 617.238281 348.164062 C 618.296875 348.042969 619.328125 347.921875 620.359375 347.832031 C 622.449219 347.621094 624.480469 347.4375 626.480469 347.226562 C 628.507812 347.105469 630.480469 346.953125 632.449219 346.832031 C 636.359375 346.527344 640.148438 346.46875 643.785156 346.316406 C 645.753906 346.253906 647.691406 346.253906 649.601562 346.253906 L 687.089844 378.257812 C 687.089844 378.257812 685.9375 378.015625 683.816406 377.53125 C 681.726562 377.074219 678.453125 376.257812 674.875 375.621094 C 673.964844 375.410156 672.996094 375.226562 671.964844 375.015625 C 670.964844 374.832031 669.875 374.621094 668.722656 374.4375 C 666.421875 374.074219 663.9375 373.652344 661.269531 373.257812 C 658.601562 372.925781 655.753906 372.53125 652.722656 372.167969 C 649.722656 371.894531 646.542969 371.5 643.207031 371.289062 C 639.875 371.105469 636.417969 370.800781 632.8125 370.710938 C 630.996094 370.679688 629.175781 370.621094 627.328125 370.558594 C 625.449219 370.558594 623.539062 370.558594 621.628906 370.53125 C 620.691406 370.53125 619.722656 370.53125 618.722656 370.53125 C 617.75 370.558594 616.78125 370.589844 615.8125 370.621094 C 613.8125 370.679688 611.84375 370.742188 609.8125 370.800781 C 605.78125 371.074219 601.628906 371.257812 597.449219 371.679688 C 593.234375 372.015625 588.992188 372.558594 584.6875 373.074219 C 582.539062 373.378906 580.355469 373.742188 578.203125 374.074219 C 577.113281 374.226562 575.992188 374.378906 574.902344 374.558594 C 573.808594 374.773438 572.71875 374.953125 571.628906 375.167969 C 569.445312 375.589844 567.234375 375.925781 565.050781 376.410156 C 562.871094 376.894531 560.65625 377.347656 558.476562 377.832031 C 556.261719 378.347656 554.082031 378.894531 551.871094 379.441406 C 549.65625 379.953125 547.476562 380.5625 545.292969 381.167969 C 540.898438 382.320312 536.566406 383.710938 532.230469 385.046875 C 530.082031 385.773438 527.929688 386.5 525.808594 387.226562 C 523.65625 387.925781 521.535156 388.710938 519.441406 389.5 C 517.351562 390.320312 515.230469 391.046875 513.171875 391.894531 C 511.109375 392.742188 509.046875 393.5625 507.019531 394.410156 C 504.957031 395.226562 502.988281 396.167969 500.988281 397.046875 C 498.988281 397.925781 496.988281 398.773438 495.078125 399.742188 C 493.140625 400.652344 491.199219 401.5625 489.289062 402.472656 C 487.410156 403.441406 485.5625 404.378906 483.714844 405.320312 C 482.773438 405.804688 481.867188 406.257812 480.957031 406.742188 C 480.046875 407.230469 479.167969 407.714844 478.257812 408.199219 C 476.5 409.167969 474.742188 410.136719 473.015625 411.078125 C 471.289062 412.046875 469.621094 413.078125 467.957031 414.015625 C 466.320312 415.015625 464.621094 415.925781 463.078125 416.925781 C 461.5 417.925781 459.925781 418.894531 458.410156 419.835938 C 457.652344 420.320312 456.894531 420.804688 456.136719 421.261719 C 455.410156 421.746094 454.683594 422.230469 453.953125 422.714844 C 448.167969 426.503906 442.984375 430.167969 438.4375 433.535156 C 436.195312 435.230469 434.074219 436.804688 432.136719 438.292969 C 430.226562 439.804688 428.46875 441.199219 426.863281 442.472656 C 426.074219 443.078125 425.316406 443.683594 424.621094 444.261719 C 423.921875 444.835938 423.285156 445.382812 422.679688 445.898438 C 421.46875 446.898438 420.4375 447.777344 419.621094 448.472656 C 417.953125 449.867188 417.074219 450.625 417.074219 450.625 C 417.074219 450.625 417.863281 449.808594 419.378906 448.230469 " fill-opacity="1" fill-rule="nonzero"/><path fill="#3a6ab9" d="M 420.195312 486.839844 C 421.195312 486.113281 422.4375 485.203125 423.890625 484.140625 C 424.621094 483.628906 425.40625 483.050781 426.257812 482.445312 C 427.105469 481.871094 428.015625 481.261719 428.953125 480.597656 C 430.894531 479.292969 433.015625 477.839844 435.316406 476.261719 C 437.679688 474.746094 440.226562 473.109375 442.953125 471.355469 C 448.4375 467.898438 454.710938 464.109375 461.710938 460.230469 C 462.589844 459.746094 463.46875 459.261719 464.347656 458.746094 C 465.257812 458.261719 466.167969 457.808594 467.105469 457.292969 C 468.925781 456.324219 470.835938 455.351562 472.714844 454.351562 C 474.621094 453.292969 476.621094 452.382812 478.621094 451.382812 C 480.621094 450.414062 482.652344 449.382812 484.746094 448.414062 C 486.835938 447.441406 488.957031 446.472656 491.109375 445.503906 C 492.167969 445.019531 493.261719 444.535156 494.351562 444.019531 C 495.472656 443.5625 496.5625 443.109375 497.683594 442.625 C 499.925781 441.683594 502.167969 440.746094 504.441406 439.777344 C 506.746094 438.867188 509.078125 437.957031 511.441406 437.046875 C 513.777344 436.109375 516.171875 435.261719 518.59375 434.414062 C 521.019531 433.5625 523.414062 432.65625 525.898438 431.835938 C 528.351562 431.046875 530.867188 430.230469 533.351562 429.441406 C 535.867188 428.59375 538.414062 427.925781 540.960938 427.167969 C 543.503906 426.410156 546.082031 425.652344 548.6875 424.988281 C 551.292969 424.320312 553.898438 423.652344 556.503906 422.988281 C 561.75 421.773438 567.023438 420.503906 572.355469 419.503906 C 575.023438 418.988281 577.6875 418.441406 580.386719 418.015625 C 583.050781 417.5625 585.71875 417.078125 588.417969 416.683594 C 591.082031 416.320312 593.78125 415.925781 596.449219 415.5625 C 599.113281 415.167969 601.8125 414.957031 604.476562 414.652344 C 605.8125 414.503906 607.144531 414.351562 608.476562 414.199219 C 609.8125 414.078125 611.144531 413.988281 612.480469 413.894531 C 615.113281 413.683594 617.78125 413.441406 620.417969 413.289062 C 625.691406 413.046875 630.902344 412.746094 636.054688 412.714844 C 641.175781 412.5625 646.238281 412.714844 651.207031 412.773438 C 653.691406 412.835938 656.148438 412.988281 658.570312 413.078125 C 659.785156 413.136719 660.996094 413.167969 662.179688 413.230469 C 663.390625 413.320312 664.574219 413.410156 665.753906 413.5 C 668.117188 413.683594 670.453125 413.835938 672.753906 414.015625 C 675.058594 414.257812 677.300781 414.503906 679.511719 414.746094 C 683.96875 415.136719 688.242188 415.835938 692.363281 416.378906 C 696.484375 416.957031 700.390625 417.714844 704.121094 418.351562 C 705.785156 418.652344 707.394531 418.988281 708.96875 419.289062 L 734.667969 460.746094 C 734.667969 460.746094 733.425781 460.230469 731.152344 459.292969 C 728.878906 458.351562 725.363281 456.808594 721.484375 455.382812 C 720.484375 454.988281 719.421875 454.59375 718.332031 454.171875 C 717.242188 453.714844 716.058594 453.292969 714.816406 452.867188 C 712.300781 451.988281 709.574219 451.019531 706.664062 450.050781 C 703.726562 449.171875 700.605469 448.140625 697.300781 447.171875 C 693.96875 446.261719 690.484375 445.230469 686.785156 444.320312 C 683.089844 443.441406 679.238281 442.441406 675.210938 441.65625 C 673.210938 441.230469 671.148438 440.804688 669.058594 440.382812 C 666.964844 440.019531 664.84375 439.625 662.695312 439.230469 C 661.601562 439.046875 660.542969 438.867188 659.449219 438.683594 C 658.328125 438.503906 657.238281 438.351562 656.117188 438.199219 C 653.90625 437.867188 651.632812 437.5625 649.359375 437.230469 C 644.785156 436.746094 640.085938 436.109375 635.296875 435.777344 C 630.511719 435.320312 625.628906 435.109375 620.691406 434.867188 C 618.207031 434.777344 615.722656 434.746094 613.207031 434.683594 C 611.933594 434.65625 610.691406 434.59375 609.417969 434.59375 C 608.144531 434.625 606.902344 434.625 605.628906 434.625 C 603.113281 434.683594 600.539062 434.625 597.992188 434.746094 C 595.417969 434.867188 592.871094 434.957031 590.296875 435.046875 C 587.71875 435.167969 585.175781 435.382812 582.566406 435.5625 C 579.992188 435.683594 577.417969 435.957031 574.839844 436.199219 C 569.6875 436.65625 564.535156 437.351562 559.414062 437.988281 C 556.871094 438.414062 554.324219 438.804688 551.746094 439.199219 C 549.203125 439.5625 546.6875 440.019531 544.171875 440.503906 C 541.65625 440.988281 539.140625 441.414062 536.65625 441.957031 C 534.171875 442.503906 531.6875 443.050781 529.230469 443.5625 C 526.777344 444.109375 524.351562 444.777344 521.929688 445.351562 C 519.535156 445.929688 517.140625 446.535156 514.777344 447.199219 C 512.414062 447.867188 510.078125 448.503906 507.746094 449.171875 C 505.441406 449.867188 503.167969 450.566406 500.898438 451.261719 C 499.777344 451.625 498.652344 451.957031 497.53125 452.324219 C 496.441406 452.6875 495.320312 453.050781 494.230469 453.445312 C 492.046875 454.171875 489.894531 454.898438 487.746094 455.625 C 485.625 456.382812 483.5625 457.203125 481.5 457.957031 C 479.441406 458.746094 477.410156 459.445312 475.441406 460.261719 C 473.472656 461.050781 471.53125 461.839844 469.621094 462.625 C 468.683594 463.019531 467.742188 463.382812 466.804688 463.777344 C 465.863281 464.171875 464.957031 464.566406 464.078125 464.960938 C 456.804688 468.082031 450.257812 471.203125 444.5 474.050781 C 441.621094 475.535156 438.953125 476.898438 436.46875 478.171875 C 434.015625 479.503906 431.773438 480.71875 429.742188 481.839844 C 428.710938 482.382812 427.742188 482.898438 426.832031 483.382812 C 425.953125 483.929688 425.136719 484.414062 424.347656 484.871094 C 422.800781 485.75 421.46875 486.535156 420.40625 487.140625 C 418.253906 488.414062 417.105469 489.082031 417.105469 489.082031 C 417.105469 489.082031 418.164062 488.292969 420.195312 486.839844 " fill-opacity="1" fill-rule="nonzero"/><path fill="#ffffff" d="M 218.105469 607.445312 C 218.105469 611.472656 215.226562 614.019531 210.890625 614.019531 C 206.558594 614.019531 200.496094 611.382812 197.558594 604.65625 L 193.980469 604.65625 L 194.832031 616.898438 L 198.40625 616.898438 C 198.558594 616.050781 199.40625 614.65625 201.195312 614.65625 C 204.132812 614.65625 206.921875 618.050781 213.226562 618.050781 C 220.5 618.050781 230.136719 613.960938 230.136719 603.414062 C 230.136719 592.867188 220.347656 588.898438 214.679688 586.171875 C 209.195312 583.625 206.011719 581.140625 206.011719 577.109375 C 206.011719 573.925781 208.40625 571.230469 212.679688 571.230469 C 215.527344 571.230469 219.890625 572.382812 223.285156 579.746094 L 226.257812 579.746094 L 225.558594 568.109375 L 221.890625 568.109375 C 221.742188 568.957031 220.984375 569.441406 220.042969 569.441406 C 218.105469 569.441406 215.375 567.503906 210.042969 567.503906 C 201.738281 567.503906 194.679688 572.230469 194.679688 580.898438 C 194.679688 589.351562 201.496094 593.472656 208.496094 597.050781 C 216.164062 600.929688 218.105469 603.867188 218.105469 607.445312 Z M 218.105469 607.445312 " fill-opacity="1" fill-rule="nonzero"/><path fill="#ffffff" d="M 256.199219 609.929688 L 256.199219 575.714844 C 256.199219 572.988281 257.652344 572.140625 262.078125 571.835938 L 262.078125 568.746094 C 254.015625 568.957031 245.710938 568.957031 237.652344 568.746094 L 237.652344 571.835938 C 241.984375 572.140625 243.46875 572.988281 243.46875 575.714844 L 243.46875 609.929688 C 243.46875 612.625 241.984375 613.476562 237.652344 613.808594 L 237.652344 616.898438 C 245.710938 616.65625 254.015625 616.65625 262.078125 616.898438 L 262.078125 613.808594 C 257.652344 613.476562 256.199219 612.625 256.199219 609.929688 Z M 256.199219 609.929688 " fill-opacity="1" fill-rule="nonzero"/><path fill="#ffffff" d="M 298.207031 568.746094 L 298.207031 571.835938 C 303.328125 572.230469 307.449219 573.320312 307.449219 577.019531 L 307.449219 595.808594 L 288.207031 568.746094 C 281.992188 568.957031 275.8125 568.957031 269.691406 568.746094 L 269.691406 571.835938 C 274.023438 572.140625 276.964844 574.382812 276.964844 578.503906 L 276.964844 608.535156 C 276.964844 612.324219 272.839844 613.414062 268.8125 613.808594 L 268.8125 616.898438 C 275.265625 616.65625 282.871094 616.65625 290.386719 616.898438 L 290.386719 613.808594 C 285.113281 613.414062 280.992188 612.324219 280.992188 608.535156 L 280.992188 579.746094 L 307.539062 616.898438 L 311.480469 616.898438 L 311.480469 577.019531 C 311.480469 573.320312 315.601562 572.230469 319.691406 571.835938 L 319.691406 568.746094 C 313.175781 568.957031 305.601562 568.957031 298.207031 568.746094 Z M 298.207031 568.746094 " fill-opacity="1" fill-rule="nonzero"/><path fill="#ffffff" d="M 368.179688 603.714844 C 365.300781 611.867188 359.816406 614.109375 355.300781 614.109375 C 345.207031 614.109375 340.632812 603.019531 340.632812 589.835938 C 340.632812 578.351562 343.8125 571.382812 351.816406 571.382812 C 358.238281 571.382812 362.269531 575.957031 365.300781 582.472656 L 371.664062 582.472656 C 369.875 577.957031 368.96875 573.382812 368.726562 568.804688 C 366.300781 569.503906 365.300781 569.503906 364.300781 569.503906 C 359.421875 569.503906 357.480469 567.503906 351.511719 567.503906 C 337.691406 567.503906 327.238281 577.019531 327.238281 592.320312 C 327.238281 607.351562 337.390625 618.140625 352.511719 618.140625 C 365.089844 618.140625 370.574219 610.839844 372.359375 603.714844 Z M 368.179688 603.714844 " fill-opacity="1" fill-rule="nonzero"/><path fill="#ffffff" d="M 419.039062 602.625 L 416.007812 602.625 L 412.765625 607.898438 C 410.433594 611.777344 408.097656 613.414062 402.28125 613.414062 L 401.429688 613.414062 C 398.945312 613.414062 397.886719 612.625 397.886719 609.929688 L 397.886719 593.625 L 405.3125 593.625 C 409.28125 593.625 410.582031 595.261719 411.433594 598.445312 L 413.855469 598.445312 C 413.460938 593.777344 413.460938 589.988281 413.855469 585.320312 L 411.433594 585.320312 C 410.582031 588.65625 409.191406 589.898438 405.3125 589.898438 L 397.886719 589.898438 L 397.886719 574.230469 C 397.886719 572.683594 398.644531 571.925781 400.128906 571.925781 L 403.855469 571.925781 C 410.128906 571.925781 411.523438 573.777344 413.855469 578.109375 L 414.765625 579.835938 L 417.734375 579.835938 L 416.339844 570.140625 C 416.191406 568.957031 416.007812 568.746094 415.007812 568.746094 L 379.492188 568.746094 L 379.492188 571.835938 C 383.824219 572.140625 385.15625 572.683594 385.15625 574.925781 L 385.15625 609.929688 C 385.15625 612.625 383.824219 613.476562 379.492188 613.808594 L 379.492188 616.898438 C 391.734375 616.503906 403.523438 616.503906 416.402344 616.898438 C 416.339844 612.324219 417.25 607.59375 419.039062 602.625 Z M 419.039062 602.625 " fill-opacity="1" fill-rule="nonzero"/><path fill="#ffffff" d="M 486.117188 602.777344 L 483.175781 602.777344 L 481.027344 605.898438 C 479.296875 608.445312 475.964844 608.746094 471.632812 608.746094 L 458.753906 608.746094 C 470.84375 601.230469 483.722656 593.019531 483.722656 581.683594 C 483.722656 572.988281 476.449219 567.503906 465.722656 567.503906 C 454.722656 567.503906 447.8125 573.625 447.8125 581.835938 C 447.8125 586.109375 449.75 590.140625 454.175781 590.140625 C 457.417969 590.140625 459.601562 587.804688 459.601562 585.261719 C 459.601562 583.078125 458.660156 582.777344 458.660156 579.441406 C 458.660156 574.382812 460.996094 571.046875 465.359375 571.046875 C 469.601562 571.046875 471.875 574.320312 471.875 579.292969 C 471.875 592.6875 455.117188 607.050781 448.054688 613.566406 L 448.359375 616.898438 L 480.632812 616.898438 C 481.785156 616.898438 482.785156 616.292969 483.117188 615.109375 Z M 486.117188 602.777344 " fill-opacity="1" fill-rule="nonzero"/><path fill="#ffffff" d="M 537.714844 592.625 C 537.714844 578.957031 529.710938 567.5625 516.136719 567.5625 C 502.558594 567.5625 494.4375 578.957031 494.4375 592.625 C 494.4375 606.59375 502.558594 618.050781 516.136719 618.050781 C 529.710938 618.050781 537.714844 606.414062 537.714844 592.625 Z M 516.136719 614.261719 C 508.679688 614.261719 507.378906 601.6875 507.378906 592.625 C 507.378906 583.867188 508.679688 571.289062 516.136719 571.289062 C 523.5 571.289062 524.742188 583.867188 524.742188 592.625 C 524.742188 601.6875 523.5 614.261719 516.136719 614.261719 Z M 516.136719 614.261719 " fill-opacity="1" fill-rule="nonzero"/><path fill="#ffffff" d="M 564.84375 610.929688 L 564.84375 581.988281 C 564.84375 577.019531 564.84375 574.078125 565.296875 570.351562 C 564.902344 569.351562 564.054688 568.59375 563.054688 568.109375 C 558.570312 570.746094 552.964844 572.382812 547.085938 573.320312 L 547.085938 576.410156 C 551.023438 576.109375 552.660156 576.957031 552.660156 580.292969 L 552.660156 610.929688 C 552.660156 612.867188 550.570312 613.476562 547.296875 613.808594 L 547.296875 616.898438 C 555.234375 616.746094 562.507812 616.746094 570.417969 616.898438 L 570.417969 613.808594 C 566.933594 613.476562 564.84375 612.867188 564.84375 610.929688 Z M 564.84375 610.929688 " fill-opacity="1" fill-rule="nonzero"/><path fill="#ffffff" d="M 601.539062 583.714844 C 595.324219 583.714844 588.71875 586.957031 586.324219 590.441406 L 587.414062 576.867188 L 608.113281 576.867188 C 609.296875 576.867188 610.296875 576.261719 610.597656 575.109375 L 612.839844 566.5625 L 606.960938 566.5625 C 605.71875 568.410156 603.476562 568.746094 599.902344 568.746094 L 584.929688 568.746094 L 582.839844 593.867188 L 586.929688 593.867188 C 589.050781 590.835938 592.6875 588.441406 596.808594 588.441406 C 602.6875 588.441406 607.113281 593.472656 607.113281 602.019531 C 607.113281 608.351562 604.78125 614.808594 597.871094 614.808594 C 592.144531 614.808594 590.808594 610.140625 589.808594 606.960938 C 589.050781 604.414062 588.808594 601.230469 584.6875 601.230469 C 580.898438 601.230469 579.261719 604.019531 580.113281 607.59375 C 581.445312 613.476562 588.355469 617.839844 597.808594 617.839844 C 608.75 617.839844 619.296875 611.71875 619.296875 599.988281 C 619.296875 588.199219 608.8125 583.714844 601.539062 583.714844 Z M 601.539062 583.714844 " fill-opacity="1" fill-rule="nonzero"/></svg>